TITLE ""
FILE "2Q_k_081-090.mp3" MP3
  TRACK 01 AUDIO
    TITLE "2Q_k_081-090_01"
    INDEX 01 00:00:00
  TRACK 02 AUDIO
    TITLE "2Q_k_081-090_02"
    INDEX 01 00:01:67
  TRACK 03 AUDIO
    TITLE "2Q_k_081-090_03"
    INDEX 01 00:02:39
  TRACK 04 AUDIO
    TITLE "2Q_k_081-090_04"
    INDEX 01 00:03:75
  TRACK 05 AUDIO
    TITLE "2Q_k_081-090_05"
    INDEX 01 00:04:49
  TRACK 06 AUDIO
    TITLE "2Q_k_081-090_06"
    INDEX 01 00:07:67
  TRACK 07 AUDIO
    TITLE "2Q_k_081-090_07"
    INDEX 01 00:10:19
  TRACK 08 AUDIO
    TITLE "2Q_k_081-090_08"
    INDEX 01 00:10:62
  TRACK 09 AUDIO
    TITLE "2Q_k_081-090_09"
    INDEX 01 00:12:49
  TRACK 10 AUDIO
    TITLE "2Q_k_081-090_10"
    INDEX 01 00:13:23
  TRACK 11 AUDIO
    TITLE "2Q_k_081-090_11"
    INDEX 01 00:15:18
  TRACK 12 AUDIO
    TITLE "2Q_k_081-090_12"
    INDEX 01 00:15:63
  TRACK 13 AUDIO
    TITLE "2Q_k_081-090_13"
    INDEX 01 00:22:75
  TRACK 14 AUDIO
    TITLE "2Q_k_081-090_14"
    INDEX 01 00:24:09
  TRACK 15 AUDIO
    TITLE "2Q_k_081-090_15"
    INDEX 01 00:24:56
  TRACK 16 AUDIO
    TITLE "2Q_k_081-090_16"
    INDEX 01 00:26:37
  TRACK 17 AUDIO
    TITLE "2Q_k_081-090_17"
    INDEX 01 00:27:09
  TRACK 18 AUDIO
    TITLE "2Q_k_081-090_18"
    INDEX 01 00:29:37
  TRACK 19 AUDIO
    TITLE "2Q_k_081-090_19"
    INDEX 01 00:30:07
  TRACK 20 AUDIO
    TITLE "2Q_k_081-090_20"
    INDEX 01 00:34:19
  TRACK 21 AUDIO
    TITLE "2Q_k_081-090_21"
    INDEX 01 00:37:47
  TRACK 22 AUDIO
    TITLE "2Q_k_081-090_22"
    INDEX 01 00:38:17
  TRACK 23 AUDIO
    TITLE "2Q_k_081-090_23"
    INDEX 01 00:39:32
  TRACK 24 AUDIO
    TITLE "2Q_k_081-090_24"
    INDEX 01 00:40:08
  TRACK 25 AUDIO
    TITLE "2Q_k_081-090_25"
    INDEX 01 00:41:23
  TRACK 26 AUDIO
    TITLE "2Q_k_081-090_26"
    INDEX 01 00:41:66
  TRACK 27 AUDIO
    TITLE "2Q_k_081-090_27"
    INDEX 01 00:44:41
  TRACK 28 AUDIO
    TITLE "2Q_k_081-090_28"
    INDEX 01 00:45:38
  TRACK 29 AUDIO
    TITLE "2Q_k_081-090_29"
    INDEX 01 00:46:10
  TRACK 30 AUDIO
    TITLE "2Q_k_081-090_30"
    INDEX 01 00:47:53
  TRACK 31 AUDIO
    TITLE "2Q_k_081-090_31"
    INDEX 01 00:48:25
  TRACK 32 AUDIO
    TITLE "2Q_k_081-090_32"
    INDEX 01 00:50:36
  TRACK 33 AUDIO
    TITLE "2Q_k_081-090_33"
    INDEX 01 00:51:06
  TRACK 34 AUDIO
    TITLE "2Q_k_081-090_34"
    INDEX 01 00:54:43
  TRACK 35 AUDIO
    TITLE "2Q_k_081-090_35"
    INDEX 01 00:58:04
  TRACK 36 AUDIO
    TITLE "2Q_k_081-090_36"
    INDEX 01 00:58:51
  TRACK 37 AUDIO
    TITLE "2Q_k_081-090_37"
    INDEX 01 01:00:14
  TRACK 38 AUDIO
    TITLE "2Q_k_081-090_38"
    INDEX 01 01:00:61
  TRACK 39 AUDIO
    TITLE "2Q_k_081-090_39"
    INDEX 01 01:02:35
  TRACK 40 AUDIO
    TITLE "2Q_k_081-090_40"
    INDEX 01 01:03:05
  TRACK 41 AUDIO
    TITLE "2Q_k_081-090_41"
    INDEX 01 01:09:62
  TRACK 42 AUDIO
    TITLE "2Q_k_081-090_42"
    INDEX 01 01:12:06
  TRACK 43 AUDIO
    TITLE "2Q_k_081-090_43"
    INDEX 01 01:12:51
  TRACK 44 AUDIO
    TITLE "2Q_k_081-090_44"
    INDEX 01 01:14:42
  TRACK 45 AUDIO
    TITLE "2Q_k_081-090_45"
    INDEX 01 01:15:14
  TRACK 46 AUDIO
    TITLE "2Q_k_081-090_46"
    INDEX 01 01:16:72
  TRACK 47 AUDIO
    TITLE "2Q_k_081-090_47"
    INDEX 01 01:17:44
  TRACK 48 AUDIO
    TITLE "2Q_k_081-090_48"
    INDEX 01 01:19:41
  TRACK 49 AUDIO
    TITLE "2Q_k_081-090_49"
    INDEX 01 01:23:33
  TRACK 50 AUDIO
    TITLE "2Q_k_081-090_50"
    INDEX 01 01:24:03
  TRACK 51 AUDIO
    TITLE "2Q_k_081-090_51"
    INDEX 01 01:26:08
  TRACK 52 AUDIO
    TITLE "2Q_k_081-090_52"
    INDEX 01 01:26:55
  TRACK 53 AUDIO
    TITLE "2Q_k_081-090_53"
    INDEX 01 01:28:40
  TRACK 54 AUDIO
    TITLE "2Q_k_081-090_54"
    INDEX 01 01:29:10
  TRACK 55 AUDIO
    TITLE "2Q_k_081-090_55"
    INDEX 01 01:33:16
  TRACK 56 AUDIO
    TITLE "2Q_k_081-090_56"
    INDEX 01 01:35:52
  TRACK 57 AUDIO
    TITLE "2Q_k_081-090_57"
    INDEX 01 01:36:22
  TRACK 58 AUDIO
    TITLE "2Q_k_081-090_58"
    INDEX 01 01:37:59
  TRACK 59 AUDIO
    TITLE "2Q_k_081-090_59"
    INDEX 01 01:38:27
  TRACK 60 AUDIO
    TITLE "2Q_k_081-090_60"
    INDEX 01 01:39:67
  TRACK 61 AUDIO
    TITLE "2Q_k_081-090_61"
    INDEX 01 01:40:36
  TRACK 62 AUDIO
    TITLE "2Q_k_081-090_62"
    INDEX 01 01:43:34
  TRACK 63 AUDIO
    TITLE "2Q_k_081-090_63"
    INDEX 01 01:47:63
  TRACK 64 AUDIO
    TITLE "2Q_k_081-090_64"
    INDEX 01 01:48:35
  TRACK 65 AUDIO
    TITLE "2Q_k_081-090_65"
    INDEX 01 01:49:48
  TRACK 66 AUDIO
    TITLE "2Q_k_081-090_66"
    INDEX 01 01:50:20
  TRACK 67 AUDIO
    TITLE "2Q_k_081-090_67"
    INDEX 01 01:51:61
  TRACK 68 AUDIO
    TITLE "2Q_k_081-090_68"
    INDEX 01 01:52:31
  TRACK 69 AUDIO
    TITLE "2Q_k_081-090_69"
    INDEX 01 01:53:42
  TRACK 70 AUDIO
    TITLE "2Q_k_081-090_70"
    INDEX 01 01:55:66
